<svg width="25" height="25" viewBox="0 0 25 25" fill="none" xmlns="http://www.w3.org/2000/svg">
<path d="M17.2409 9.8467C17.0536 9.66045 16.8001 9.55591 16.5359 9.55591C16.2717 9.55591 16.0183 9.66045 15.8309 9.8467L12.2409 13.3867L8.70092 9.8467C8.51355 9.66045 8.2601 9.55591 7.99592 9.55591C7.73173 9.55591 7.47828 9.66045 7.29092 9.8467C7.19719 9.93966 7.12279 10.0503 7.07202 10.1721C7.02126 10.294 6.99512 10.4247 6.99512 10.5567C6.99512 10.6887 7.02126 10.8194 7.07202 10.9413C7.12279 11.0631 7.19719 11.1737 7.29092 11.2667L11.5309 15.5067C11.6239 15.6004 11.7345 15.6748 11.8563 15.7256C11.9782 15.7764 12.1089 15.8025 12.2409 15.8025C12.3729 15.8025 12.5036 15.7764 12.6255 15.7256C12.7474 15.6748 12.858 15.6004 12.9509 15.5067L17.2409 11.2667C17.3346 11.1737 17.409 11.0631 17.4598 10.9413C17.5106 10.8194 17.5367 10.6887 17.5367 10.5567C17.5367 10.4247 17.5106 10.294 17.4598 10.1721C17.409 10.0503 17.3346 9.93966 17.2409 9.8467Z" fill="white"/>
</svg>
